<mxfile host="app.diagrams.net" agent="Mozilla/5.0 (Windows NT 10.0; Win64; x64) AppleWebKit/537.36 (KHTML, like Gecko) Chrome/133.0.0.0 Safari/537.36" version="26.1.0" pages="4">
  <diagram name="Main" id="cY8B4E4LFyX0teHlb0y6">
    <mxGraphModel dx="3880" dy="811" grid="1" gridSize="10" guides="1" tooltips="1" connect="1" arrows="1" fold="1" page="1" pageScale="1" pageWidth="2000" pageHeight="2000" math="0" shadow="0">
      <root>
        <mxCell id="0" />
        <mxCell id="1" parent="0" />
        <mxCell id="xaEnBVEJQaKItcZt-NJd-5" style="edgeStyle=orthogonalEdgeStyle;rounded=0;orthogonalLoop=1;jettySize=auto;html=1;exitX=0.5;exitY=1;exitDx=0;exitDy=0;exitPerimeter=0;entryX=0.5;entryY=0;entryDx=0;entryDy=0;" parent="1" source="xaEnBVEJQaKItcZt-NJd-1" target="xaEnBVEJQaKItcZt-NJd-3" edge="1">
          <mxGeometry relative="1" as="geometry" />
        </mxCell>
        <mxCell id="xaEnBVEJQaKItcZt-NJd-1" value="Start" style="strokeWidth=2;html=1;shape=mxgraph.flowchart.terminator;whiteSpace=wrap;" parent="1" vertex="1">
          <mxGeometry x="210" y="40" width="100" height="60" as="geometry" />
        </mxCell>
        <mxCell id="xaEnBVEJQaKItcZt-NJd-9" style="edgeStyle=orthogonalEdgeStyle;rounded=0;orthogonalLoop=1;jettySize=auto;html=1;exitX=0.5;exitY=1;exitDx=0;exitDy=0;entryX=0.5;entryY=0;entryDx=0;entryDy=0;" parent="1" source="xaEnBVEJQaKItcZt-NJd-2" target="xaEnBVEJQaKItcZt-NJd-8" edge="1">
          <mxGeometry relative="1" as="geometry" />
        </mxCell>
        <mxCell id="xaEnBVEJQaKItcZt-NJd-2" value="input username" style="shape=parallelogram;perimeter=parallelogramPerimeter;whiteSpace=wrap;html=1;fixedSize=1;" parent="1" vertex="1">
          <mxGeometry x="200" y="280" width="120" height="60" as="geometry" />
        </mxCell>
        <mxCell id="xaEnBVEJQaKItcZt-NJd-6" style="edgeStyle=orthogonalEdgeStyle;rounded=0;orthogonalLoop=1;jettySize=auto;html=1;exitX=0.5;exitY=1;exitDx=0;exitDy=0;entryX=0.5;entryY=0;entryDx=0;entryDy=0;" parent="1" source="xaEnBVEJQaKItcZt-NJd-3" target="xaEnBVEJQaKItcZt-NJd-4" edge="1">
          <mxGeometry relative="1" as="geometry" />
        </mxCell>
        <mxCell id="xaEnBVEJQaKItcZt-NJd-3" value="username == NAMA" style="rounded=0;whiteSpace=wrap;html=1;" parent="1" vertex="1">
          <mxGeometry x="201" y="120" width="120" height="60" as="geometry" />
        </mxCell>
        <mxCell id="xaEnBVEJQaKItcZt-NJd-7" style="edgeStyle=orthogonalEdgeStyle;rounded=0;orthogonalLoop=1;jettySize=auto;html=1;entryX=0.5;entryY=0;entryDx=0;entryDy=0;" parent="1" source="xaEnBVEJQaKItcZt-NJd-4" target="xaEnBVEJQaKItcZt-NJd-2" edge="1">
          <mxGeometry relative="1" as="geometry" />
        </mxCell>
        <mxCell id="xaEnBVEJQaKItcZt-NJd-4" value="&lt;div&gt;password == NIM&lt;/div&gt;" style="rounded=0;whiteSpace=wrap;html=1;" parent="1" vertex="1">
          <mxGeometry x="200" y="200" width="120" height="60" as="geometry" />
        </mxCell>
        <mxCell id="xaEnBVEJQaKItcZt-NJd-15" style="edgeStyle=orthogonalEdgeStyle;rounded=0;orthogonalLoop=1;jettySize=auto;html=1;exitX=0.5;exitY=1;exitDx=0;exitDy=0;entryX=0.5;entryY=0;entryDx=0;entryDy=0;" parent="1" source="xaEnBVEJQaKItcZt-NJd-8" target="xaEnBVEJQaKItcZt-NJd-14" edge="1">
          <mxGeometry relative="1" as="geometry" />
        </mxCell>
        <mxCell id="xaEnBVEJQaKItcZt-NJd-8" value="input password" style="shape=parallelogram;perimeter=parallelogramPerimeter;whiteSpace=wrap;html=1;fixedSize=1;" parent="1" vertex="1">
          <mxGeometry x="200" y="360" width="120" height="60" as="geometry" />
        </mxCell>
        <mxCell id="xaEnBVEJQaKItcZt-NJd-10" value="" style="endArrow=classic;html=1;rounded=0;entryX=0;entryY=0.75;entryDx=0;entryDy=0;" parent="1" edge="1">
          <mxGeometry width="50" height="50" relative="1" as="geometry">
            <mxPoint x="181.54" y="290.36" as="sourcePoint" />
            <mxPoint x="216.9945454545455" y="289.99636363636364" as="targetPoint" />
          </mxGeometry>
        </mxCell>
        <mxCell id="xaEnBVEJQaKItcZt-NJd-13" value="" style="endArrow=classic;html=1;rounded=0;entryX=0;entryY=0.75;entryDx=0;entryDy=0;" parent="1" edge="1">
          <mxGeometry width="50" height="50" relative="1" as="geometry">
            <mxPoint x="181.54" y="370.36" as="sourcePoint" />
            <mxPoint x="216.9945454545455" y="369.99636363636364" as="targetPoint" />
          </mxGeometry>
        </mxCell>
        <mxCell id="xaEnBVEJQaKItcZt-NJd-21" style="edgeStyle=orthogonalEdgeStyle;rounded=0;orthogonalLoop=1;jettySize=auto;html=1;exitX=0;exitY=0.5;exitDx=0;exitDy=0;entryX=0.5;entryY=1;entryDx=0;entryDy=0;" parent="1" source="xaEnBVEJQaKItcZt-NJd-14" target="xaEnBVEJQaKItcZt-NJd-17" edge="1">
          <mxGeometry relative="1" as="geometry" />
        </mxCell>
        <mxCell id="xaEnBVEJQaKItcZt-NJd-23" value="False" style="edgeLabel;html=1;align=center;verticalAlign=middle;resizable=0;points=[];" parent="xaEnBVEJQaKItcZt-NJd-21" vertex="1" connectable="0">
          <mxGeometry x="-0.4127" y="-1" relative="1" as="geometry">
            <mxPoint as="offset" />
          </mxGeometry>
        </mxCell>
        <mxCell id="xaEnBVEJQaKItcZt-NJd-30" style="edgeStyle=orthogonalEdgeStyle;rounded=0;orthogonalLoop=1;jettySize=auto;html=1;exitX=0.5;exitY=1;exitDx=0;exitDy=0;entryX=0.5;entryY=0;entryDx=0;entryDy=0;" parent="1" source="xaEnBVEJQaKItcZt-NJd-14" target="xaEnBVEJQaKItcZt-NJd-26" edge="1">
          <mxGeometry relative="1" as="geometry" />
        </mxCell>
        <mxCell id="xaEnBVEJQaKItcZt-NJd-32" value="True" style="edgeLabel;html=1;align=center;verticalAlign=middle;resizable=0;points=[];" parent="xaEnBVEJQaKItcZt-NJd-30" vertex="1" connectable="0">
          <mxGeometry x="-0.1688" relative="1" as="geometry">
            <mxPoint as="offset" />
          </mxGeometry>
        </mxCell>
        <mxCell id="xaEnBVEJQaKItcZt-NJd-14" value="&lt;font style=&quot;font-size: 10px;&quot;&gt;username&amp;nbsp;&lt;/font&gt;&lt;div&gt;&lt;font style=&quot;font-size: 10px;&quot;&gt;==&amp;nbsp;&lt;/font&gt;&lt;span style=&quot;font-size: 10px; background-color: initial;&quot;&gt;NAMA&amp;nbsp;&lt;/span&gt;&lt;div style=&quot;font-size: 10px;&quot;&gt;&lt;font style=&quot;font-size: 10px;&quot;&gt;&amp;amp;&amp;amp;&amp;nbsp;&lt;/font&gt;&lt;/div&gt;&lt;div style=&quot;font-size: 10px;&quot;&gt;&lt;font style=&quot;font-size: 10px;&quot;&gt;password&amp;nbsp;&lt;/font&gt;&lt;/div&gt;&lt;div style=&quot;font-size: 10px;&quot;&gt;&lt;font style=&quot;font-size: 10px;&quot;&gt;==&amp;nbsp;&lt;/font&gt;&lt;span style=&quot;background-color: initial;&quot;&gt;NIM&lt;/span&gt;&lt;/div&gt;&lt;/div&gt;" style="rhombus;whiteSpace=wrap;html=1;" parent="1" vertex="1">
          <mxGeometry x="205" y="450" width="110" height="110" as="geometry" />
        </mxCell>
        <mxCell id="xaEnBVEJQaKItcZt-NJd-20" style="edgeStyle=orthogonalEdgeStyle;rounded=0;orthogonalLoop=1;jettySize=auto;html=1;exitX=0.5;exitY=0;exitDx=0;exitDy=0;" parent="1" source="xaEnBVEJQaKItcZt-NJd-17" target="xaEnBVEJQaKItcZt-NJd-2" edge="1">
          <mxGeometry relative="1" as="geometry">
            <Array as="points">
              <mxPoint x="100" y="310" />
            </Array>
          </mxGeometry>
        </mxCell>
        <mxCell id="xaEnBVEJQaKItcZt-NJd-22" style="edgeStyle=orthogonalEdgeStyle;rounded=0;orthogonalLoop=1;jettySize=auto;html=1;exitX=1;exitY=1;exitDx=0;exitDy=0;" parent="1" source="xaEnBVEJQaKItcZt-NJd-17" edge="1">
          <mxGeometry relative="1" as="geometry">
            <mxPoint x="170" y="451.33333333333337" as="targetPoint" />
          </mxGeometry>
        </mxCell>
        <mxCell id="xaEnBVEJQaKItcZt-NJd-17" value="username atau&lt;div&gt;password&lt;/div&gt;&lt;div&gt;tidak benar&lt;/div&gt;" style="shape=parallelogram;perimeter=parallelogramPerimeter;whiteSpace=wrap;html=1;fixedSize=1;" parent="1" vertex="1">
          <mxGeometry x="40" y="400" width="120" height="60" as="geometry" />
        </mxCell>
        <mxCell id="xaEnBVEJQaKItcZt-NJd-31" style="edgeStyle=orthogonalEdgeStyle;rounded=0;orthogonalLoop=1;jettySize=auto;html=1;exitX=0.5;exitY=1;exitDx=0;exitDy=0;entryX=0.5;entryY=0;entryDx=0;entryDy=0;" parent="1" source="xaEnBVEJQaKItcZt-NJd-26" target="xaEnBVEJQaKItcZt-NJd-28" edge="1">
          <mxGeometry relative="1" as="geometry" />
        </mxCell>
        <mxCell id="xaEnBVEJQaKItcZt-NJd-26" value="masukkan kode&amp;nbsp;&lt;div&gt;sandi&lt;/div&gt;" style="shape=parallelogram;perimeter=parallelogramPerimeter;whiteSpace=wrap;html=1;fixedSize=1;" parent="1" vertex="1">
          <mxGeometry x="200" y="600" width="120" height="60" as="geometry" />
        </mxCell>
        <mxCell id="xaEnBVEJQaKItcZt-NJd-36" style="edgeStyle=orthogonalEdgeStyle;rounded=0;orthogonalLoop=1;jettySize=auto;html=1;exitX=0;exitY=0.5;exitDx=0;exitDy=0;entryX=0;entryY=0.5;entryDx=0;entryDy=0;" parent="1" source="xaEnBVEJQaKItcZt-NJd-28" target="xaEnBVEJQaKItcZt-NJd-26" edge="1">
          <mxGeometry relative="1" as="geometry">
            <Array as="points">
              <mxPoint x="150" y="755" />
              <mxPoint x="150" y="630" />
            </Array>
          </mxGeometry>
        </mxCell>
        <mxCell id="xaEnBVEJQaKItcZt-NJd-37" value="False" style="edgeLabel;html=1;align=center;verticalAlign=middle;resizable=0;points=[];" parent="xaEnBVEJQaKItcZt-NJd-36" vertex="1" connectable="0">
          <mxGeometry x="-0.8504" relative="1" as="geometry">
            <mxPoint x="-8" as="offset" />
          </mxGeometry>
        </mxCell>
        <mxCell id="xaEnBVEJQaKItcZt-NJd-41" style="edgeStyle=orthogonalEdgeStyle;rounded=0;orthogonalLoop=1;jettySize=auto;html=1;exitX=0.5;exitY=1;exitDx=0;exitDy=0;entryX=0.5;entryY=0;entryDx=0;entryDy=0;" parent="1" source="xaEnBVEJQaKItcZt-NJd-28" target="xaEnBVEJQaKItcZt-NJd-40" edge="1">
          <mxGeometry relative="1" as="geometry" />
        </mxCell>
        <mxCell id="mF11bpuzt6TQowzWKevo-1" value="True" style="edgeLabel;html=1;align=center;verticalAlign=middle;resizable=0;points=[];" parent="xaEnBVEJQaKItcZt-NJd-41" vertex="1" connectable="0">
          <mxGeometry x="-0.1078" y="-1" relative="1" as="geometry">
            <mxPoint y="-2" as="offset" />
          </mxGeometry>
        </mxCell>
        <mxCell id="xaEnBVEJQaKItcZt-NJd-28" value="&lt;span style=&quot;font-size: 10px;&quot;&gt;kode &amp;lt;= 100&lt;/span&gt;&lt;div&gt;&lt;span style=&quot;font-size: 10px;&quot;&gt;&amp;amp;&amp;amp;&lt;/span&gt;&lt;/div&gt;&lt;div&gt;&lt;span style=&quot;font-size: 10px;&quot;&gt;kode &amp;gt; 99999&lt;/span&gt;&lt;/div&gt;" style="rhombus;whiteSpace=wrap;html=1;" parent="1" vertex="1">
          <mxGeometry x="195" y="690" width="130" height="130" as="geometry" />
        </mxCell>
        <mxCell id="xaEnBVEJQaKItcZt-NJd-34" style="edgeStyle=orthogonalEdgeStyle;rounded=0;orthogonalLoop=1;jettySize=auto;html=1;exitX=1;exitY=1;exitDx=0;exitDy=0;entryX=0.032;entryY=0.829;entryDx=0;entryDy=0;entryPerimeter=0;" parent="1" edge="1">
          <mxGeometry relative="1" as="geometry">
            <mxPoint x="216.99999999999997" y="609" as="targetPoint" />
            <mxPoint x="186.16" y="609.26" as="sourcePoint" />
          </mxGeometry>
        </mxCell>
        <mxCell id="xaEnBVEJQaKItcZt-NJd-46" style="edgeStyle=orthogonalEdgeStyle;rounded=0;orthogonalLoop=1;jettySize=auto;html=1;exitX=0.5;exitY=1;exitDx=0;exitDy=0;entryX=0.5;entryY=0;entryDx=0;entryDy=0;" parent="1" source="xaEnBVEJQaKItcZt-NJd-40" target="xaEnBVEJQaKItcZt-NJd-44" edge="1">
          <mxGeometry relative="1" as="geometry" />
        </mxCell>
        <mxCell id="xaEnBVEJQaKItcZt-NJd-40" value="&lt;div&gt;&lt;span style=&quot;background-color: initial;&quot;&gt;MENU&lt;/span&gt;&lt;/div&gt;&lt;div style=&quot;text-align: left;&quot;&gt;1. Cek bilangan prima&lt;/div&gt;&lt;div style=&quot;text-align: left;&quot;&gt;2. Cek habis dibagi 2 &amp;amp; 3 tidak 5&lt;/div&gt;&lt;div style=&quot;text-align: left;&quot;&gt;3. Cek Palindrome&lt;/div&gt;&lt;div style=&quot;text-align: left;&quot;&gt;4. Keluar&lt;/div&gt;" style="shape=parallelogram;html=1;strokeWidth=1;perimeter=parallelogramPerimeter;whiteSpace=wrap;rounded=1;arcSize=0;size=0.23;" parent="1" vertex="1">
          <mxGeometry x="122.66" y="850" width="276.67" height="100" as="geometry" />
        </mxCell>
        <mxCell id="xaEnBVEJQaKItcZt-NJd-42" style="edgeStyle=orthogonalEdgeStyle;rounded=0;orthogonalLoop=1;jettySize=auto;html=1;exitX=1;exitY=1;exitDx=0;exitDy=0;entryX=0.032;entryY=0.829;entryDx=0;entryDy=0;entryPerimeter=0;" parent="1" edge="1">
          <mxGeometry relative="1" as="geometry">
            <mxPoint x="181" y="860" as="targetPoint" />
            <mxPoint x="150" y="860" as="sourcePoint" />
          </mxGeometry>
        </mxCell>
        <mxCell id="xaEnBVEJQaKItcZt-NJd-43" value="" style="endArrow=classic;html=1;rounded=0;entryX=0;entryY=0.75;entryDx=0;entryDy=0;" parent="1" edge="1">
          <mxGeometry width="50" height="50" relative="1" as="geometry">
            <mxPoint x="184.54" y="990.36" as="sourcePoint" />
            <mxPoint x="219.9945454545455" y="989.9963636363638" as="targetPoint" />
          </mxGeometry>
        </mxCell>
        <mxCell id="xaEnBVEJQaKItcZt-NJd-48" style="edgeStyle=orthogonalEdgeStyle;rounded=0;orthogonalLoop=1;jettySize=auto;html=1;exitX=0.5;exitY=1;exitDx=0;exitDy=0;entryX=0.5;entryY=0;entryDx=0;entryDy=0;" parent="1" source="xaEnBVEJQaKItcZt-NJd-44" target="xaEnBVEJQaKItcZt-NJd-47" edge="1">
          <mxGeometry relative="1" as="geometry" />
        </mxCell>
        <mxCell id="xaEnBVEJQaKItcZt-NJd-44" value="input pilihan :" style="shape=parallelogram;perimeter=parallelogramPerimeter;whiteSpace=wrap;html=1;fixedSize=1;" parent="1" vertex="1">
          <mxGeometry x="200" y="980" width="120" height="60" as="geometry" />
        </mxCell>
        <mxCell id="xaEnBVEJQaKItcZt-NJd-50" style="edgeStyle=orthogonalEdgeStyle;rounded=0;orthogonalLoop=1;jettySize=auto;html=1;exitX=0.5;exitY=1;exitDx=0;exitDy=0;entryX=0.5;entryY=0;entryDx=0;entryDy=0;" parent="1" source="xaEnBVEJQaKItcZt-NJd-47" target="xaEnBVEJQaKItcZt-NJd-49" edge="1">
          <mxGeometry relative="1" as="geometry" />
        </mxCell>
        <mxCell id="xaEnBVEJQaKItcZt-NJd-57" value="False" style="edgeLabel;html=1;align=center;verticalAlign=middle;resizable=0;points=[];" parent="xaEnBVEJQaKItcZt-NJd-50" vertex="1" connectable="0">
          <mxGeometry x="-0.3575" relative="1" as="geometry">
            <mxPoint as="offset" />
          </mxGeometry>
        </mxCell>
        <mxCell id="xaEnBVEJQaKItcZt-NJd-64" style="edgeStyle=orthogonalEdgeStyle;rounded=0;orthogonalLoop=1;jettySize=auto;html=1;exitX=0;exitY=0.5;exitDx=0;exitDy=0;entryX=1;entryY=0.25;entryDx=0;entryDy=0;" parent="1" source="xaEnBVEJQaKItcZt-NJd-47" target="xaEnBVEJQaKItcZt-NJd-63" edge="1">
          <mxGeometry relative="1" as="geometry" />
        </mxCell>
        <mxCell id="xaEnBVEJQaKItcZt-NJd-74" value="True" style="edgeLabel;html=1;align=center;verticalAlign=middle;resizable=0;points=[];" parent="xaEnBVEJQaKItcZt-NJd-64" vertex="1" connectable="0">
          <mxGeometry x="-0.4188" relative="1" as="geometry">
            <mxPoint as="offset" />
          </mxGeometry>
        </mxCell>
        <mxCell id="xaEnBVEJQaKItcZt-NJd-47" value="pilihan == 1" style="rhombus;whiteSpace=wrap;html=1;" parent="1" vertex="1">
          <mxGeometry x="220" y="1080" width="80" height="80" as="geometry" />
        </mxCell>
        <mxCell id="xaEnBVEJQaKItcZt-NJd-52" style="edgeStyle=orthogonalEdgeStyle;rounded=0;orthogonalLoop=1;jettySize=auto;html=1;exitX=0.5;exitY=1;exitDx=0;exitDy=0;entryX=0.5;entryY=0;entryDx=0;entryDy=0;" parent="1" source="xaEnBVEJQaKItcZt-NJd-49" target="xaEnBVEJQaKItcZt-NJd-51" edge="1">
          <mxGeometry relative="1" as="geometry" />
        </mxCell>
        <mxCell id="xaEnBVEJQaKItcZt-NJd-58" value="False" style="edgeLabel;html=1;align=center;verticalAlign=middle;resizable=0;points=[];" parent="xaEnBVEJQaKItcZt-NJd-52" vertex="1" connectable="0">
          <mxGeometry x="-0.2885" relative="1" as="geometry">
            <mxPoint as="offset" />
          </mxGeometry>
        </mxCell>
        <mxCell id="xaEnBVEJQaKItcZt-NJd-66" style="edgeStyle=orthogonalEdgeStyle;rounded=0;orthogonalLoop=1;jettySize=auto;html=1;exitX=0;exitY=0.5;exitDx=0;exitDy=0;entryX=1;entryY=0.25;entryDx=0;entryDy=0;" parent="1" source="xaEnBVEJQaKItcZt-NJd-49" target="xaEnBVEJQaKItcZt-NJd-65" edge="1">
          <mxGeometry relative="1" as="geometry" />
        </mxCell>
        <mxCell id="xaEnBVEJQaKItcZt-NJd-75" value="True" style="edgeLabel;html=1;align=center;verticalAlign=middle;resizable=0;points=[];" parent="xaEnBVEJQaKItcZt-NJd-66" vertex="1" connectable="0">
          <mxGeometry x="-0.16" relative="1" as="geometry">
            <mxPoint as="offset" />
          </mxGeometry>
        </mxCell>
        <mxCell id="xaEnBVEJQaKItcZt-NJd-49" value="pilihan == 2" style="rhombus;whiteSpace=wrap;html=1;" parent="1" vertex="1">
          <mxGeometry x="220" y="1200" width="80" height="80" as="geometry" />
        </mxCell>
        <mxCell id="xaEnBVEJQaKItcZt-NJd-54" style="edgeStyle=orthogonalEdgeStyle;rounded=0;orthogonalLoop=1;jettySize=auto;html=1;exitX=0.5;exitY=1;exitDx=0;exitDy=0;entryX=0.5;entryY=0;entryDx=0;entryDy=0;" parent="1" source="xaEnBVEJQaKItcZt-NJd-51" target="xaEnBVEJQaKItcZt-NJd-53" edge="1">
          <mxGeometry relative="1" as="geometry" />
        </mxCell>
        <mxCell id="xaEnBVEJQaKItcZt-NJd-59" value="False" style="edgeLabel;html=1;align=center;verticalAlign=middle;resizable=0;points=[];" parent="xaEnBVEJQaKItcZt-NJd-54" vertex="1" connectable="0">
          <mxGeometry x="-0.0586" relative="1" as="geometry">
            <mxPoint as="offset" />
          </mxGeometry>
        </mxCell>
        <mxCell id="xaEnBVEJQaKItcZt-NJd-68" style="edgeStyle=orthogonalEdgeStyle;rounded=0;orthogonalLoop=1;jettySize=auto;html=1;exitX=0;exitY=0.5;exitDx=0;exitDy=0;entryX=1;entryY=0.25;entryDx=0;entryDy=0;" parent="1" source="xaEnBVEJQaKItcZt-NJd-51" target="xaEnBVEJQaKItcZt-NJd-67" edge="1">
          <mxGeometry relative="1" as="geometry" />
        </mxCell>
        <mxCell id="xaEnBVEJQaKItcZt-NJd-76" value="True" style="edgeLabel;html=1;align=center;verticalAlign=middle;resizable=0;points=[];" parent="xaEnBVEJQaKItcZt-NJd-68" vertex="1" connectable="0">
          <mxGeometry x="0.1928" y="2" relative="1" as="geometry">
            <mxPoint x="10" y="-2" as="offset" />
          </mxGeometry>
        </mxCell>
        <mxCell id="xaEnBVEJQaKItcZt-NJd-51" value="pilihan == 3" style="rhombus;whiteSpace=wrap;html=1;" parent="1" vertex="1">
          <mxGeometry x="219.99" y="1320" width="80" height="80" as="geometry" />
        </mxCell>
        <mxCell id="xaEnBVEJQaKItcZt-NJd-61" style="edgeStyle=orthogonalEdgeStyle;rounded=0;orthogonalLoop=1;jettySize=auto;html=1;exitX=0;exitY=0.5;exitDx=0;exitDy=0;entryX=0;entryY=0.5;entryDx=0;entryDy=0;" parent="1" source="xaEnBVEJQaKItcZt-NJd-53" target="xaEnBVEJQaKItcZt-NJd-40" edge="1">
          <mxGeometry relative="1" as="geometry">
            <Array as="points">
              <mxPoint x="-110" y="1480" />
              <mxPoint x="-110" y="900" />
            </Array>
          </mxGeometry>
        </mxCell>
        <mxCell id="xaEnBVEJQaKItcZt-NJd-73" value="False" style="edgeLabel;html=1;align=center;verticalAlign=middle;resizable=0;points=[];" parent="xaEnBVEJQaKItcZt-NJd-61" vertex="1" connectable="0">
          <mxGeometry x="-0.8878" y="-1" relative="1" as="geometry">
            <mxPoint as="offset" />
          </mxGeometry>
        </mxCell>
        <mxCell id="xaEnBVEJQaKItcZt-NJd-53" value="pilihan == 4" style="rhombus;whiteSpace=wrap;html=1;" parent="1" vertex="1">
          <mxGeometry x="219.99" y="1440" width="80" height="80" as="geometry" />
        </mxCell>
        <mxCell id="xaEnBVEJQaKItcZt-NJd-55" value="End" style="strokeWidth=2;html=1;shape=mxgraph.flowchart.terminator;whiteSpace=wrap;" parent="1" vertex="1">
          <mxGeometry x="209.99" y="1570" width="100" height="60" as="geometry" />
        </mxCell>
        <mxCell id="xaEnBVEJQaKItcZt-NJd-56" style="edgeStyle=orthogonalEdgeStyle;rounded=0;orthogonalLoop=1;jettySize=auto;html=1;exitX=0.5;exitY=1;exitDx=0;exitDy=0;entryX=0.5;entryY=0;entryDx=0;entryDy=0;entryPerimeter=0;" parent="1" source="xaEnBVEJQaKItcZt-NJd-53" target="xaEnBVEJQaKItcZt-NJd-55" edge="1">
          <mxGeometry relative="1" as="geometry" />
        </mxCell>
        <mxCell id="xaEnBVEJQaKItcZt-NJd-60" value="True" style="edgeLabel;html=1;align=center;verticalAlign=middle;resizable=0;points=[];" parent="xaEnBVEJQaKItcZt-NJd-56" vertex="1" connectable="0">
          <mxGeometry x="-0.1274" y="-1" relative="1" as="geometry">
            <mxPoint as="offset" />
          </mxGeometry>
        </mxCell>
        <mxCell id="xaEnBVEJQaKItcZt-NJd-63" value="Prima" style="verticalLabelPosition=bottom;verticalAlign=top;html=1;shape=offPageConnector;rounded=0;size=0.5;" parent="1" vertex="1">
          <mxGeometry x="110" y="1105" width="60" height="60" as="geometry" />
        </mxCell>
        <mxCell id="xaEnBVEJQaKItcZt-NJd-65" value="bagi_2" style="verticalLabelPosition=bottom;verticalAlign=top;html=1;shape=offPageConnector;rounded=0;size=0.5;" parent="1" vertex="1">
          <mxGeometry x="110" y="1225" width="60" height="60" as="geometry" />
        </mxCell>
        <mxCell id="xaEnBVEJQaKItcZt-NJd-67" value="palindrome" style="verticalLabelPosition=bottom;verticalAlign=top;html=1;shape=offPageConnector;rounded=0;size=0.5;" parent="1" vertex="1">
          <mxGeometry x="110" y="1345" width="60" height="60" as="geometry" />
        </mxCell>
        <mxCell id="_7mjdRbht0BbXIiWvT-_-3" style="edgeStyle=orthogonalEdgeStyle;rounded=0;orthogonalLoop=1;jettySize=auto;html=1;exitX=0;exitY=0.25;exitDx=0;exitDy=0;" parent="1" source="_7mjdRbht0BbXIiWvT-_-1" edge="1">
          <mxGeometry relative="1" as="geometry">
            <mxPoint x="-110" y="1119.6666666666665" as="targetPoint" />
          </mxGeometry>
        </mxCell>
        <mxCell id="_7mjdRbht0BbXIiWvT-_-1" value="Prima1" style="verticalLabelPosition=bottom;verticalAlign=top;html=1;shape=offPageConnector;rounded=0;size=0.5;" parent="1" vertex="1">
          <mxGeometry y="1105" width="60" height="60" as="geometry" />
        </mxCell>
        <mxCell id="8C3uCuiGjaukJpBMnMjA-3" style="edgeStyle=orthogonalEdgeStyle;rounded=0;orthogonalLoop=1;jettySize=auto;html=1;exitX=0;exitY=0.25;exitDx=0;exitDy=0;" parent="1" source="8C3uCuiGjaukJpBMnMjA-1" edge="1">
          <mxGeometry relative="1" as="geometry">
            <mxPoint x="-110" y="1239.6666666666665" as="targetPoint" />
          </mxGeometry>
        </mxCell>
        <mxCell id="8C3uCuiGjaukJpBMnMjA-1" value="kasih2" style="verticalLabelPosition=bottom;verticalAlign=top;html=1;shape=offPageConnector;rounded=0;size=0.5;" parent="1" vertex="1">
          <mxGeometry y="1225" width="60" height="60" as="geometry" />
        </mxCell>
        <mxCell id="igYS8ulM6iUbrLNWJ8sM-2" style="edgeStyle=orthogonalEdgeStyle;rounded=0;orthogonalLoop=1;jettySize=auto;html=1;" edge="1" parent="1" source="igYS8ulM6iUbrLNWJ8sM-1">
          <mxGeometry relative="1" as="geometry">
            <mxPoint x="-110" y="1375" as="targetPoint" />
          </mxGeometry>
        </mxCell>
        <mxCell id="igYS8ulM6iUbrLNWJ8sM-1" value="&lt;div&gt;palindrome&lt;/div&gt;" style="verticalLabelPosition=bottom;verticalAlign=top;html=1;shape=offPageConnector;rounded=0;size=0.5;" vertex="1" parent="1">
          <mxGeometry y="1345" width="60" height="60" as="geometry" />
        </mxCell>
      </root>
    </mxGraphModel>
  </diagram>
  <diagram id="sSggGVIFE-e4cgwpoFDY" name="Prima">
    <mxGraphModel dx="1290" dy="717" grid="1" gridSize="10" guides="1" tooltips="1" connect="1" arrows="1" fold="1" page="1" pageScale="1" pageWidth="2000" pageHeight="2000" math="0" shadow="0">
      <root>
        <mxCell id="0" />
        <mxCell id="1" parent="0" />
        <mxCell id="42NIUNG-gnG2jZbwPPLs-2" style="edgeStyle=orthogonalEdgeStyle;rounded=0;orthogonalLoop=1;jettySize=auto;html=1;exitX=0.5;exitY=1;exitDx=0;exitDy=0;" parent="1" source="WwZ2N3oaAwPVtOCbzqsf-1" target="42NIUNG-gnG2jZbwPPLs-1" edge="1">
          <mxGeometry relative="1" as="geometry" />
        </mxCell>
        <mxCell id="WwZ2N3oaAwPVtOCbzqsf-1" value="Prima" style="verticalLabelPosition=bottom;verticalAlign=top;html=1;shape=offPageConnector;rounded=0;size=0.5;" parent="1" vertex="1">
          <mxGeometry x="210" y="40" width="60" height="60" as="geometry" />
        </mxCell>
        <mxCell id="42NIUNG-gnG2jZbwPPLs-5" style="edgeStyle=orthogonalEdgeStyle;rounded=0;orthogonalLoop=1;jettySize=auto;html=1;exitX=0.5;exitY=1;exitDx=0;exitDy=0;exitPerimeter=0;entryX=0.5;entryY=0;entryDx=0;entryDy=0;" parent="1" source="42NIUNG-gnG2jZbwPPLs-1" target="42NIUNG-gnG2jZbwPPLs-4" edge="1">
          <mxGeometry relative="1" as="geometry" />
        </mxCell>
        <mxCell id="42NIUNG-gnG2jZbwPPLs-1" value="start" style="strokeWidth=2;html=1;shape=mxgraph.flowchart.terminator;whiteSpace=wrap;" parent="1" vertex="1">
          <mxGeometry x="190" y="150" width="100" height="60" as="geometry" />
        </mxCell>
        <mxCell id="42NIUNG-gnG2jZbwPPLs-12" style="edgeStyle=orthogonalEdgeStyle;rounded=0;orthogonalLoop=1;jettySize=auto;html=1;exitX=0;exitY=0.5;exitDx=0;exitDy=0;entryX=0.5;entryY=0;entryDx=0;entryDy=0;" parent="1" source="42NIUNG-gnG2jZbwPPLs-4" target="42NIUNG-gnG2jZbwPPLs-11" edge="1">
          <mxGeometry relative="1" as="geometry" />
        </mxCell>
        <mxCell id="42NIUNG-gnG2jZbwPPLs-13" value="False" style="edgeLabel;html=1;align=center;verticalAlign=middle;resizable=0;points=[];" parent="42NIUNG-gnG2jZbwPPLs-12" vertex="1" connectable="0">
          <mxGeometry x="-0.7949" relative="1" as="geometry">
            <mxPoint as="offset" />
          </mxGeometry>
        </mxCell>
        <mxCell id="42NIUNG-gnG2jZbwPPLs-15" style="edgeStyle=orthogonalEdgeStyle;rounded=0;orthogonalLoop=1;jettySize=auto;html=1;exitX=0.5;exitY=1;exitDx=0;exitDy=0;entryX=0.5;entryY=0;entryDx=0;entryDy=0;" parent="1" source="42NIUNG-gnG2jZbwPPLs-4" target="42NIUNG-gnG2jZbwPPLs-6" edge="1">
          <mxGeometry relative="1" as="geometry" />
        </mxCell>
        <mxCell id="42NIUNG-gnG2jZbwPPLs-16" value="True" style="edgeLabel;html=1;align=center;verticalAlign=middle;resizable=0;points=[];" parent="42NIUNG-gnG2jZbwPPLs-15" vertex="1" connectable="0">
          <mxGeometry x="-0.1507" relative="1" as="geometry">
            <mxPoint as="offset" />
          </mxGeometry>
        </mxCell>
        <mxCell id="42NIUNG-gnG2jZbwPPLs-4" value="kode &amp;lt; 2" style="rhombus;whiteSpace=wrap;html=1;" parent="1" vertex="1">
          <mxGeometry x="200" y="240" width="80" height="80" as="geometry" />
        </mxCell>
        <mxCell id="42NIUNG-gnG2jZbwPPLs-9" style="edgeStyle=orthogonalEdgeStyle;rounded=0;orthogonalLoop=1;jettySize=auto;html=1;exitX=0.5;exitY=1;exitDx=0;exitDy=0;entryX=0.5;entryY=0;entryDx=0;entryDy=0;" parent="1" source="42NIUNG-gnG2jZbwPPLs-6" target="42NIUNG-gnG2jZbwPPLs-8" edge="1">
          <mxGeometry relative="1" as="geometry" />
        </mxCell>
        <mxCell id="42NIUNG-gnG2jZbwPPLs-6" value="i = 2" style="rounded=0;whiteSpace=wrap;html=1;" parent="1" vertex="1">
          <mxGeometry x="180" y="360" width="120" height="60" as="geometry" />
        </mxCell>
        <mxCell id="42NIUNG-gnG2jZbwPPLs-17" style="edgeStyle=orthogonalEdgeStyle;rounded=0;orthogonalLoop=1;jettySize=auto;html=1;exitX=0.5;exitY=1;exitDx=0;exitDy=0;entryX=0.5;entryY=0;entryDx=0;entryDy=0;" parent="1" source="42NIUNG-gnG2jZbwPPLs-8" target="42NIUNG-gnG2jZbwPPLs-10" edge="1">
          <mxGeometry relative="1" as="geometry" />
        </mxCell>
        <mxCell id="42NIUNG-gnG2jZbwPPLs-18" value="True" style="edgeLabel;html=1;align=center;verticalAlign=middle;resizable=0;points=[];" parent="42NIUNG-gnG2jZbwPPLs-17" vertex="1" connectable="0">
          <mxGeometry x="-0.2019" y="-1" relative="1" as="geometry">
            <mxPoint as="offset" />
          </mxGeometry>
        </mxCell>
        <mxCell id="42NIUNG-gnG2jZbwPPLs-32" style="edgeStyle=orthogonalEdgeStyle;rounded=0;orthogonalLoop=1;jettySize=auto;html=1;exitX=1;exitY=0.5;exitDx=0;exitDy=0;entryX=0.5;entryY=0;entryDx=0;entryDy=0;" parent="1" source="42NIUNG-gnG2jZbwPPLs-8" target="42NIUNG-gnG2jZbwPPLs-29" edge="1">
          <mxGeometry relative="1" as="geometry">
            <Array as="points">
              <mxPoint x="320" y="500" />
              <mxPoint x="320" y="780" />
              <mxPoint x="240" y="780" />
            </Array>
          </mxGeometry>
        </mxCell>
        <mxCell id="42NIUNG-gnG2jZbwPPLs-8" value="i * i &amp;lt;= kode" style="rhombus;whiteSpace=wrap;html=1;" parent="1" vertex="1">
          <mxGeometry x="200" y="460" width="80" height="80" as="geometry" />
        </mxCell>
        <mxCell id="42NIUNG-gnG2jZbwPPLs-19" style="edgeStyle=orthogonalEdgeStyle;rounded=0;orthogonalLoop=1;jettySize=auto;html=1;exitX=0;exitY=0.5;exitDx=0;exitDy=0;entryX=1;entryY=0.5;entryDx=0;entryDy=0;" parent="1" source="42NIUNG-gnG2jZbwPPLs-10" target="42NIUNG-gnG2jZbwPPLs-11" edge="1">
          <mxGeometry relative="1" as="geometry" />
        </mxCell>
        <mxCell id="42NIUNG-gnG2jZbwPPLs-21" value="True" style="edgeLabel;html=1;align=center;verticalAlign=middle;resizable=0;points=[];" parent="42NIUNG-gnG2jZbwPPLs-19" vertex="1" connectable="0">
          <mxGeometry x="-0.3121" y="2" relative="1" as="geometry">
            <mxPoint x="3" y="2" as="offset" />
          </mxGeometry>
        </mxCell>
        <mxCell id="42NIUNG-gnG2jZbwPPLs-25" style="edgeStyle=orthogonalEdgeStyle;rounded=0;orthogonalLoop=1;jettySize=auto;html=1;exitX=0.5;exitY=1;exitDx=0;exitDy=0;entryX=0.5;entryY=0;entryDx=0;entryDy=0;" parent="1" source="42NIUNG-gnG2jZbwPPLs-10" target="42NIUNG-gnG2jZbwPPLs-24" edge="1">
          <mxGeometry relative="1" as="geometry" />
        </mxCell>
        <mxCell id="42NIUNG-gnG2jZbwPPLs-27" value="False" style="edgeLabel;html=1;align=center;verticalAlign=middle;resizable=0;points=[];" parent="42NIUNG-gnG2jZbwPPLs-25" vertex="1" connectable="0">
          <mxGeometry x="-0.5111" relative="1" as="geometry">
            <mxPoint y="4" as="offset" />
          </mxGeometry>
        </mxCell>
        <mxCell id="42NIUNG-gnG2jZbwPPLs-10" value="kode % i&lt;div&gt;== 0&lt;/div&gt;" style="rhombus;whiteSpace=wrap;html=1;" parent="1" vertex="1">
          <mxGeometry x="200" y="580" width="80" height="80" as="geometry" />
        </mxCell>
        <mxCell id="42NIUNG-gnG2jZbwPPLs-20" style="edgeStyle=orthogonalEdgeStyle;rounded=0;orthogonalLoop=1;jettySize=auto;html=1;exitX=1;exitY=1;exitDx=0;exitDy=0;" parent="1" source="42NIUNG-gnG2jZbwPPLs-11" edge="1">
          <mxGeometry relative="1" as="geometry">
            <mxPoint x="180" y="641.5660377358491" as="targetPoint" />
          </mxGeometry>
        </mxCell>
        <mxCell id="42NIUNG-gnG2jZbwPPLs-35" style="edgeStyle=orthogonalEdgeStyle;rounded=0;orthogonalLoop=1;jettySize=auto;html=1;exitX=0.5;exitY=1;exitDx=0;exitDy=0;" parent="1" source="42NIUNG-gnG2jZbwPPLs-11" target="42NIUNG-gnG2jZbwPPLs-36" edge="1">
          <mxGeometry relative="1" as="geometry">
            <mxPoint x="220" y="900" as="targetPoint" />
            <Array as="points">
              <mxPoint x="110" y="900" />
            </Array>
          </mxGeometry>
        </mxCell>
        <mxCell id="42NIUNG-gnG2jZbwPPLs-11" value="kode sandi&amp;nbsp;&lt;div&gt;bukan&amp;nbsp;&lt;span style=&quot;background-color: initial;&quot;&gt;bilangan&amp;nbsp;&lt;/span&gt;&lt;div&gt;&lt;div&gt;prima&lt;/div&gt;&lt;/div&gt;&lt;/div&gt;" style="shape=parallelogram;perimeter=parallelogramPerimeter;whiteSpace=wrap;html=1;fixedSize=1;" parent="1" vertex="1">
          <mxGeometry x="50" y="590" width="120" height="60" as="geometry" />
        </mxCell>
        <mxCell id="42NIUNG-gnG2jZbwPPLs-24" value="i = i + 1" style="rounded=0;whiteSpace=wrap;html=1;" parent="1" vertex="1">
          <mxGeometry x="180" y="700" width="120" height="60" as="geometry" />
        </mxCell>
        <mxCell id="B5oiaDZrM7bBwMxMekHw-1" style="edgeStyle=orthogonalEdgeStyle;rounded=0;orthogonalLoop=1;jettySize=auto;html=1;exitX=1;exitY=1;exitDx=0;exitDy=0;" parent="1" source="42NIUNG-gnG2jZbwPPLs-29" edge="1">
          <mxGeometry relative="1" as="geometry">
            <mxPoint x="310.00000000000006" y="851.5483870967741" as="targetPoint" />
          </mxGeometry>
        </mxCell>
        <mxCell id="42NIUNG-gnG2jZbwPPLs-29" value="kode sandi adalah&lt;div&gt;&lt;span style=&quot;background-color: initial;&quot;&gt;bilangan&amp;nbsp;&lt;/span&gt;&lt;span style=&quot;background-color: initial;&quot;&gt;prima&lt;/span&gt;&lt;/div&gt;" style="shape=parallelogram;perimeter=parallelogramPerimeter;whiteSpace=wrap;html=1;fixedSize=1;" parent="1" vertex="1">
          <mxGeometry x="170" y="800" width="130" height="60" as="geometry" />
        </mxCell>
        <mxCell id="42NIUNG-gnG2jZbwPPLs-34" style="edgeStyle=orthogonalEdgeStyle;rounded=0;orthogonalLoop=1;jettySize=auto;html=1;exitDx=0;exitDy=0;entryX=0.5;entryY=0;entryDx=0;entryDy=0;" parent="1" source="42NIUNG-gnG2jZbwPPLs-36" target="1yD4rKNltGXUgU-u_p8d-1" edge="1">
          <mxGeometry relative="1" as="geometry">
            <mxPoint x="235" y="930" as="targetPoint" />
            <Array as="points" />
          </mxGeometry>
        </mxCell>
        <mxCell id="42NIUNG-gnG2jZbwPPLs-38" value="" style="edgeStyle=orthogonalEdgeStyle;rounded=0;orthogonalLoop=1;jettySize=auto;html=1;exitX=0.5;exitY=1;exitDx=0;exitDy=0;entryDx=0;entryDy=0;entryPerimeter=0;" parent="1" source="42NIUNG-gnG2jZbwPPLs-29" target="42NIUNG-gnG2jZbwPPLs-36" edge="1">
          <mxGeometry relative="1" as="geometry">
            <mxPoint x="240" y="870" as="sourcePoint" />
            <mxPoint x="240" y="930" as="targetPoint" />
          </mxGeometry>
        </mxCell>
        <mxCell id="42NIUNG-gnG2jZbwPPLs-36" value="" style="shape=waypoint;sketch=0;size=6;pointerEvents=1;points=[];fillColor=none;resizable=0;rotatable=0;perimeter=centerPerimeter;snapToPoint=1;" parent="1" vertex="1">
          <mxGeometry x="225" y="890" width="20" height="20" as="geometry" />
        </mxCell>
        <mxCell id="42NIUNG-gnG2jZbwPPLs-40" style="edgeStyle=orthogonalEdgeStyle;rounded=0;orthogonalLoop=1;jettySize=auto;html=1;exitX=1;exitY=0.5;exitDx=0;exitDy=0;entryX=0.775;entryY=0.717;entryDx=0;entryDy=0;entryPerimeter=0;" parent="1" source="42NIUNG-gnG2jZbwPPLs-24" target="42NIUNG-gnG2jZbwPPLs-8" edge="1">
          <mxGeometry relative="1" as="geometry">
            <Array as="points">
              <mxPoint x="310" y="730" />
              <mxPoint x="310" y="517" />
            </Array>
          </mxGeometry>
        </mxCell>
        <mxCell id="1yD4rKNltGXUgU-u_p8d-1" value="Prima1" style="verticalLabelPosition=bottom;verticalAlign=top;html=1;shape=offPageConnector;rounded=0;size=0.5;" vertex="1" parent="1">
          <mxGeometry x="205" y="950" width="60" height="60" as="geometry" />
        </mxCell>
      </root>
    </mxGraphModel>
  </diagram>
  <diagram name="bagi_2" id="O_5NqeJrc5cBkFMHe_hG">
    <mxGraphModel dx="1290" dy="717" grid="1" gridSize="10" guides="1" tooltips="1" connect="1" arrows="1" fold="1" page="1" pageScale="1" pageWidth="2000" pageHeight="2000" math="0" shadow="0">
      <root>
        <mxCell id="qI9kJkZ0VAwWQq39NBLt-0" />
        <mxCell id="qI9kJkZ0VAwWQq39NBLt-1" parent="qI9kJkZ0VAwWQq39NBLt-0" />
        <mxCell id="qI9kJkZ0VAwWQq39NBLt-2" style="edgeStyle=orthogonalEdgeStyle;rounded=0;orthogonalLoop=1;jettySize=auto;html=1;exitX=0.5;exitY=1;exitDx=0;exitDy=0;" parent="qI9kJkZ0VAwWQq39NBLt-1" source="qI9kJkZ0VAwWQq39NBLt-3" target="qI9kJkZ0VAwWQq39NBLt-5" edge="1">
          <mxGeometry relative="1" as="geometry" />
        </mxCell>
        <mxCell id="qI9kJkZ0VAwWQq39NBLt-3" value="bagi_2&lt;div&gt;&lt;br&gt;&lt;/div&gt;" style="verticalLabelPosition=bottom;verticalAlign=top;html=1;shape=offPageConnector;rounded=0;size=0.5;" parent="qI9kJkZ0VAwWQq39NBLt-1" vertex="1">
          <mxGeometry x="210" y="40" width="60" height="60" as="geometry" />
        </mxCell>
        <mxCell id="qI9kJkZ0VAwWQq39NBLt-4" style="edgeStyle=orthogonalEdgeStyle;rounded=0;orthogonalLoop=1;jettySize=auto;html=1;exitX=0.5;exitY=1;exitDx=0;exitDy=0;exitPerimeter=0;entryX=0.5;entryY=0;entryDx=0;entryDy=0;" parent="qI9kJkZ0VAwWQq39NBLt-1" source="qI9kJkZ0VAwWQq39NBLt-5" target="qI9kJkZ0VAwWQq39NBLt-10" edge="1">
          <mxGeometry relative="1" as="geometry" />
        </mxCell>
        <mxCell id="qI9kJkZ0VAwWQq39NBLt-5" value="start" style="strokeWidth=2;html=1;shape=mxgraph.flowchart.terminator;whiteSpace=wrap;" parent="qI9kJkZ0VAwWQq39NBLt-1" vertex="1">
          <mxGeometry x="190" y="150" width="100" height="60" as="geometry" />
        </mxCell>
        <mxCell id="qI9kJkZ0VAwWQq39NBLt-8" style="edgeStyle=orthogonalEdgeStyle;rounded=0;orthogonalLoop=1;jettySize=auto;html=1;exitX=0.5;exitY=1;exitDx=0;exitDy=0;entryX=0.5;entryY=0;entryDx=0;entryDy=0;" parent="qI9kJkZ0VAwWQq39NBLt-1" source="qI9kJkZ0VAwWQq39NBLt-10" edge="1">
          <mxGeometry relative="1" as="geometry">
            <mxPoint x="240" y="360" as="targetPoint" />
          </mxGeometry>
        </mxCell>
        <mxCell id="qI9kJkZ0VAwWQq39NBLt-9" value="True" style="edgeLabel;html=1;align=center;verticalAlign=middle;resizable=0;points=[];" parent="qI9kJkZ0VAwWQq39NBLt-8" vertex="1" connectable="0">
          <mxGeometry x="-0.1507" relative="1" as="geometry">
            <mxPoint as="offset" />
          </mxGeometry>
        </mxCell>
        <mxCell id="Esi8LzL-Wm_BRRl4IYlk-14" style="edgeStyle=orthogonalEdgeStyle;rounded=0;orthogonalLoop=1;jettySize=auto;html=1;exitDx=0;exitDy=0;entryX=0.5;entryY=0;entryDx=0;entryDy=0;" parent="qI9kJkZ0VAwWQq39NBLt-1" source="kzhHdxBOkbq13XpJlUFq-0" target="Esi8LzL-Wm_BRRl4IYlk-12" edge="1">
          <mxGeometry relative="1" as="geometry" />
        </mxCell>
        <mxCell id="qI9kJkZ0VAwWQq39NBLt-10" value="kode % 2&lt;div&gt;== 0&lt;/div&gt;" style="rhombus;whiteSpace=wrap;html=1;" parent="qI9kJkZ0VAwWQq39NBLt-1" vertex="1">
          <mxGeometry x="200" y="240" width="80" height="80" as="geometry" />
        </mxCell>
        <mxCell id="Esi8LzL-Wm_BRRl4IYlk-3" style="edgeStyle=orthogonalEdgeStyle;rounded=0;orthogonalLoop=1;jettySize=auto;html=1;exitX=0.5;exitY=1;exitDx=0;exitDy=0;entryX=0.5;entryY=0;entryDx=0;entryDy=0;" parent="qI9kJkZ0VAwWQq39NBLt-1" source="Esi8LzL-Wm_BRRl4IYlk-0" target="Esi8LzL-Wm_BRRl4IYlk-1" edge="1">
          <mxGeometry relative="1" as="geometry" />
        </mxCell>
        <mxCell id="Esi8LzL-Wm_BRRl4IYlk-4" value="True" style="edgeLabel;html=1;align=center;verticalAlign=middle;resizable=0;points=[];" parent="Esi8LzL-Wm_BRRl4IYlk-3" vertex="1" connectable="0">
          <mxGeometry x="0.0018" y="-1" relative="1" as="geometry">
            <mxPoint as="offset" />
          </mxGeometry>
        </mxCell>
        <mxCell id="Esi8LzL-Wm_BRRl4IYlk-15" style="edgeStyle=orthogonalEdgeStyle;rounded=0;orthogonalLoop=1;jettySize=auto;html=1;exitX=1;exitY=0.5;exitDx=0;exitDy=0;" parent="qI9kJkZ0VAwWQq39NBLt-1" source="Esi8LzL-Wm_BRRl4IYlk-0" edge="1">
          <mxGeometry relative="1" as="geometry">
            <mxPoint x="370" y="400.0952380952381" as="targetPoint" />
          </mxGeometry>
        </mxCell>
        <mxCell id="UGVzWE8OLhJhUIM8FPyB-2" value="False" style="edgeLabel;html=1;align=center;verticalAlign=middle;resizable=0;points=[];" parent="Esi8LzL-Wm_BRRl4IYlk-15" vertex="1" connectable="0">
          <mxGeometry x="-0.4259" relative="1" as="geometry">
            <mxPoint as="offset" />
          </mxGeometry>
        </mxCell>
        <mxCell id="Esi8LzL-Wm_BRRl4IYlk-0" value="kode % 3&lt;div&gt;== 0&lt;/div&gt;" style="rhombus;whiteSpace=wrap;html=1;" parent="qI9kJkZ0VAwWQq39NBLt-1" vertex="1">
          <mxGeometry x="200" y="360" width="80" height="80" as="geometry" />
        </mxCell>
        <mxCell id="Esi8LzL-Wm_BRRl4IYlk-9" style="edgeStyle=orthogonalEdgeStyle;rounded=0;orthogonalLoop=1;jettySize=auto;html=1;exitX=0.5;exitY=1;exitDx=0;exitDy=0;entryX=0.5;entryY=0;entryDx=0;entryDy=0;" parent="qI9kJkZ0VAwWQq39NBLt-1" source="Esi8LzL-Wm_BRRl4IYlk-1" target="Esi8LzL-Wm_BRRl4IYlk-7" edge="1">
          <mxGeometry relative="1" as="geometry" />
        </mxCell>
        <mxCell id="UGVzWE8OLhJhUIM8FPyB-0" value="True" style="edgeLabel;html=1;align=center;verticalAlign=middle;resizable=0;points=[];" parent="Esi8LzL-Wm_BRRl4IYlk-9" vertex="1" connectable="0">
          <mxGeometry x="-0.0377" relative="1" as="geometry">
            <mxPoint as="offset" />
          </mxGeometry>
        </mxCell>
        <mxCell id="Esi8LzL-Wm_BRRl4IYlk-13" style="edgeStyle=orthogonalEdgeStyle;rounded=0;orthogonalLoop=1;jettySize=auto;html=1;exitX=1;exitY=0.5;exitDx=0;exitDy=0;entryX=0;entryY=0.5;entryDx=0;entryDy=0;" parent="qI9kJkZ0VAwWQq39NBLt-1" source="Esi8LzL-Wm_BRRl4IYlk-1" target="Esi8LzL-Wm_BRRl4IYlk-12" edge="1">
          <mxGeometry relative="1" as="geometry" />
        </mxCell>
        <mxCell id="UGVzWE8OLhJhUIM8FPyB-1" value="False" style="edgeLabel;html=1;align=center;verticalAlign=middle;resizable=0;points=[];" parent="Esi8LzL-Wm_BRRl4IYlk-13" vertex="1" connectable="0">
          <mxGeometry x="-0.4667" y="2" relative="1" as="geometry">
            <mxPoint as="offset" />
          </mxGeometry>
        </mxCell>
        <mxCell id="Esi8LzL-Wm_BRRl4IYlk-1" value="kode % 5&lt;div&gt;!= 0&lt;/div&gt;" style="rhombus;whiteSpace=wrap;html=1;" parent="qI9kJkZ0VAwWQq39NBLt-1" vertex="1">
          <mxGeometry x="200" y="480" width="80" height="80" as="geometry" />
        </mxCell>
        <mxCell id="Esi8LzL-Wm_BRRl4IYlk-6" style="edgeStyle=orthogonalEdgeStyle;rounded=0;orthogonalLoop=1;jettySize=auto;html=1;exitX=1;exitY=1;exitDx=0;exitDy=0;" parent="qI9kJkZ0VAwWQq39NBLt-1" source="Esi8LzL-Wm_BRRl4IYlk-7" edge="1">
          <mxGeometry relative="1" as="geometry">
            <mxPoint x="304.99" y="651.5660377358491" as="targetPoint" />
          </mxGeometry>
        </mxCell>
        <mxCell id="Esi8LzL-Wm_BRRl4IYlk-7" value="memenuhi&lt;div&gt;syarat&lt;/div&gt;" style="shape=parallelogram;perimeter=parallelogramPerimeter;whiteSpace=wrap;html=1;fixedSize=1;" parent="qI9kJkZ0VAwWQq39NBLt-1" vertex="1">
          <mxGeometry x="180" y="600" width="120" height="60" as="geometry" />
        </mxCell>
        <mxCell id="Esi8LzL-Wm_BRRl4IYlk-10" style="edgeStyle=orthogonalEdgeStyle;rounded=0;orthogonalLoop=1;jettySize=auto;html=1;exitDx=0;exitDy=0;entryX=0.5;entryY=0;entryDx=0;entryDy=0;" parent="qI9kJkZ0VAwWQq39NBLt-1" source="kzhHdxBOkbq13XpJlUFq-2" target="OGg6gKcKMPTjeh1QLSXT-0" edge="1">
          <mxGeometry relative="1" as="geometry">
            <mxPoint x="240" y="730" as="targetPoint" />
            <Array as="points">
              <mxPoint x="240" y="710" />
              <mxPoint x="241" y="710" />
            </Array>
          </mxGeometry>
        </mxCell>
        <mxCell id="Esi8LzL-Wm_BRRl4IYlk-11" style="edgeStyle=orthogonalEdgeStyle;rounded=0;orthogonalLoop=1;jettySize=auto;html=1;exitX=1;exitY=1;exitDx=0;exitDy=0;" parent="qI9kJkZ0VAwWQq39NBLt-1" source="Esi8LzL-Wm_BRRl4IYlk-12" edge="1">
          <mxGeometry relative="1" as="geometry">
            <mxPoint x="434.99" y="541.5660377358491" as="targetPoint" />
          </mxGeometry>
        </mxCell>
        <mxCell id="Esi8LzL-Wm_BRRl4IYlk-16" style="edgeStyle=orthogonalEdgeStyle;rounded=0;orthogonalLoop=1;jettySize=auto;html=1;exitX=0.5;exitY=1;exitDx=0;exitDy=0;" parent="qI9kJkZ0VAwWQq39NBLt-1" source="Esi8LzL-Wm_BRRl4IYlk-12" edge="1">
          <mxGeometry relative="1" as="geometry">
            <mxPoint x="240" y="690" as="targetPoint" />
            <Array as="points">
              <mxPoint x="370" y="690" />
            </Array>
          </mxGeometry>
        </mxCell>
        <mxCell id="Esi8LzL-Wm_BRRl4IYlk-12" value="tidak memenuhi&lt;div&gt;syarat&lt;/div&gt;" style="shape=parallelogram;perimeter=parallelogramPerimeter;whiteSpace=wrap;html=1;fixedSize=1;" parent="qI9kJkZ0VAwWQq39NBLt-1" vertex="1">
          <mxGeometry x="310" y="490" width="120" height="60" as="geometry" />
        </mxCell>
        <mxCell id="kzhHdxBOkbq13XpJlUFq-1" value="" style="edgeStyle=orthogonalEdgeStyle;rounded=0;orthogonalLoop=1;jettySize=auto;html=1;exitX=1;exitY=0.5;exitDx=0;exitDy=0;entryDx=0;entryDy=0;" parent="qI9kJkZ0VAwWQq39NBLt-1" source="qI9kJkZ0VAwWQq39NBLt-10" target="kzhHdxBOkbq13XpJlUFq-0" edge="1">
          <mxGeometry relative="1" as="geometry">
            <mxPoint x="280" y="280" as="sourcePoint" />
            <mxPoint x="370" y="490" as="targetPoint" />
          </mxGeometry>
        </mxCell>
        <mxCell id="UGVzWE8OLhJhUIM8FPyB-3" value="False" style="edgeLabel;html=1;align=center;verticalAlign=middle;resizable=0;points=[];" parent="kzhHdxBOkbq13XpJlUFq-1" vertex="1" connectable="0">
          <mxGeometry x="-0.7524" y="1" relative="1" as="geometry">
            <mxPoint as="offset" />
          </mxGeometry>
        </mxCell>
        <mxCell id="kzhHdxBOkbq13XpJlUFq-0" value="" style="shape=waypoint;sketch=0;size=6;pointerEvents=1;points=[];fillColor=none;resizable=0;rotatable=0;perimeter=centerPerimeter;snapToPoint=1;" parent="qI9kJkZ0VAwWQq39NBLt-1" vertex="1">
          <mxGeometry x="360" y="390" width="20" height="20" as="geometry" />
        </mxCell>
        <mxCell id="kzhHdxBOkbq13XpJlUFq-3" value="" style="edgeStyle=orthogonalEdgeStyle;rounded=0;orthogonalLoop=1;jettySize=auto;html=1;exitX=0.5;exitY=1;exitDx=0;exitDy=0;entryDx=0;entryDy=0;entryPerimeter=0;" parent="qI9kJkZ0VAwWQq39NBLt-1" source="Esi8LzL-Wm_BRRl4IYlk-7" target="kzhHdxBOkbq13XpJlUFq-2" edge="1">
          <mxGeometry relative="1" as="geometry">
            <mxPoint x="240" y="660" as="sourcePoint" />
            <mxPoint x="240" y="730" as="targetPoint" />
          </mxGeometry>
        </mxCell>
        <mxCell id="kzhHdxBOkbq13XpJlUFq-2" value="" style="shape=waypoint;sketch=0;size=6;pointerEvents=1;points=[];fillColor=none;resizable=0;rotatable=0;perimeter=centerPerimeter;snapToPoint=1;" parent="qI9kJkZ0VAwWQq39NBLt-1" vertex="1">
          <mxGeometry x="230" y="680" width="20" height="20" as="geometry" />
        </mxCell>
        <mxCell id="OGg6gKcKMPTjeh1QLSXT-0" value="kasih2" style="verticalLabelPosition=bottom;verticalAlign=top;html=1;shape=offPageConnector;rounded=0;size=0.5;" vertex="1" parent="qI9kJkZ0VAwWQq39NBLt-1">
          <mxGeometry x="210" y="750" width="60" height="60" as="geometry" />
        </mxCell>
      </root>
    </mxGraphModel>
  </diagram>
  <diagram name="palindrome" id="f-NxOFr4BJ67sYxbtdLb">
    <mxGraphModel dx="1034" dy="446" grid="1" gridSize="10" guides="1" tooltips="1" connect="1" arrows="1" fold="1" page="1" pageScale="1" pageWidth="2000" pageHeight="2000" math="0" shadow="0">
      <root>
        <mxCell id="WAv2XqKqGx1UPSfr3l2Y-0" />
        <mxCell id="WAv2XqKqGx1UPSfr3l2Y-1" parent="WAv2XqKqGx1UPSfr3l2Y-0" />
        <mxCell id="WAv2XqKqGx1UPSfr3l2Y-2" style="edgeStyle=orthogonalEdgeStyle;rounded=0;orthogonalLoop=1;jettySize=auto;html=1;exitX=0.5;exitY=1;exitDx=0;exitDy=0;" parent="WAv2XqKqGx1UPSfr3l2Y-1" source="WAv2XqKqGx1UPSfr3l2Y-3" target="WAv2XqKqGx1UPSfr3l2Y-5" edge="1">
          <mxGeometry relative="1" as="geometry" />
        </mxCell>
        <mxCell id="WAv2XqKqGx1UPSfr3l2Y-3" value="&lt;div&gt;palindrome&lt;/div&gt;" style="verticalLabelPosition=bottom;verticalAlign=top;html=1;shape=offPageConnector;rounded=0;size=0.5;" parent="WAv2XqKqGx1UPSfr3l2Y-1" vertex="1">
          <mxGeometry x="210" y="40" width="60" height="60" as="geometry" />
        </mxCell>
        <mxCell id="nujHXZNaoWu9555tDFve-1" style="edgeStyle=orthogonalEdgeStyle;rounded=0;orthogonalLoop=1;jettySize=auto;html=1;exitX=0.5;exitY=1;exitDx=0;exitDy=0;exitPerimeter=0;entryX=0.5;entryY=0;entryDx=0;entryDy=0;" parent="WAv2XqKqGx1UPSfr3l2Y-1" source="WAv2XqKqGx1UPSfr3l2Y-5" target="nujHXZNaoWu9555tDFve-0" edge="1">
          <mxGeometry relative="1" as="geometry" />
        </mxCell>
        <mxCell id="WAv2XqKqGx1UPSfr3l2Y-5" value="start" style="strokeWidth=2;html=1;shape=mxgraph.flowchart.terminator;whiteSpace=wrap;" parent="WAv2XqKqGx1UPSfr3l2Y-1" vertex="1">
          <mxGeometry x="190" y="150" width="100" height="60" as="geometry" />
        </mxCell>
        <mxCell id="WAv2XqKqGx1UPSfr3l2Y-6" style="edgeStyle=orthogonalEdgeStyle;rounded=0;orthogonalLoop=1;jettySize=auto;html=1;exitX=0.5;exitY=1;exitDx=0;exitDy=0;entryX=0.501;entryY=0.037;entryDx=0;entryDy=0;entryPerimeter=0;" parent="WAv2XqKqGx1UPSfr3l2Y-1" edge="1">
          <mxGeometry relative="1" as="geometry">
            <mxPoint x="240.12" y="450.22" as="targetPoint" />
            <mxPoint x="240" y="408" as="sourcePoint" />
          </mxGeometry>
        </mxCell>
        <mxCell id="WAv2XqKqGx1UPSfr3l2Y-7" value="True" style="edgeLabel;html=1;align=center;verticalAlign=middle;resizable=0;points=[];" parent="WAv2XqKqGx1UPSfr3l2Y-6" vertex="1" connectable="0">
          <mxGeometry x="-0.1507" relative="1" as="geometry">
            <mxPoint as="offset" />
          </mxGeometry>
        </mxCell>
        <mxCell id="0AXJoQNNjU15Bwa_78E2-8" style="edgeStyle=orthogonalEdgeStyle;rounded=0;orthogonalLoop=1;jettySize=auto;html=1;exitX=1;exitY=0.5;exitDx=0;exitDy=0;entryX=0.5;entryY=0;entryDx=0;entryDy=0;" parent="WAv2XqKqGx1UPSfr3l2Y-1" source="WAv2XqKqGx1UPSfr3l2Y-9" target="0AXJoQNNjU15Bwa_78E2-7" edge="1">
          <mxGeometry relative="1" as="geometry">
            <Array as="points">
              <mxPoint x="320" y="370" />
              <mxPoint x="320" y="690" />
              <mxPoint x="240" y="690" />
            </Array>
          </mxGeometry>
        </mxCell>
        <mxCell id="0AXJoQNNjU15Bwa_78E2-9" value="False" style="edgeLabel;html=1;align=center;verticalAlign=middle;resizable=0;points=[];" parent="0AXJoQNNjU15Bwa_78E2-8" vertex="1" connectable="0">
          <mxGeometry x="-0.9558" y="2" relative="1" as="geometry">
            <mxPoint x="7" y="1" as="offset" />
          </mxGeometry>
        </mxCell>
        <mxCell id="WAv2XqKqGx1UPSfr3l2Y-9" value="kode &amp;gt; 0" style="rhombus;whiteSpace=wrap;html=1;" parent="WAv2XqKqGx1UPSfr3l2Y-1" vertex="1">
          <mxGeometry x="200" y="330" width="80" height="80" as="geometry" />
        </mxCell>
        <mxCell id="0AXJoQNNjU15Bwa_78E2-0" style="edgeStyle=orthogonalEdgeStyle;rounded=0;orthogonalLoop=1;jettySize=auto;html=1;exitX=0.5;exitY=1;exitDx=0;exitDy=0;entryX=0.5;entryY=0;entryDx=0;entryDy=0;" parent="WAv2XqKqGx1UPSfr3l2Y-1" source="nujHXZNaoWu9555tDFve-0" target="WAv2XqKqGx1UPSfr3l2Y-9" edge="1">
          <mxGeometry relative="1" as="geometry" />
        </mxCell>
        <mxCell id="nujHXZNaoWu9555tDFve-0" value="originalNum = kode&lt;div&gt;reverseNum = 0&lt;/div&gt;" style="rounded=0;whiteSpace=wrap;html=1;" parent="WAv2XqKqGx1UPSfr3l2Y-1" vertex="1">
          <mxGeometry x="180" y="240" width="120" height="60" as="geometry" />
        </mxCell>
        <mxCell id="0AXJoQNNjU15Bwa_78E2-3" style="edgeStyle=orthogonalEdgeStyle;rounded=0;orthogonalLoop=1;jettySize=auto;html=1;entryX=0.5;entryY=0;entryDx=0;entryDy=0;" parent="WAv2XqKqGx1UPSfr3l2Y-1" source="0AXJoQNNjU15Bwa_78E2-1" target="0AXJoQNNjU15Bwa_78E2-2" edge="1">
          <mxGeometry relative="1" as="geometry" />
        </mxCell>
        <mxCell id="0AXJoQNNjU15Bwa_78E2-1" value="digit = kode % 10" style="rounded=0;whiteSpace=wrap;html=1;" parent="WAv2XqKqGx1UPSfr3l2Y-1" vertex="1">
          <mxGeometry x="180" y="450" width="120" height="60" as="geometry" />
        </mxCell>
        <mxCell id="0AXJoQNNjU15Bwa_78E2-5" style="edgeStyle=orthogonalEdgeStyle;rounded=0;orthogonalLoop=1;jettySize=auto;html=1;entryX=0.5;entryY=0;entryDx=0;entryDy=0;" parent="WAv2XqKqGx1UPSfr3l2Y-1" source="0AXJoQNNjU15Bwa_78E2-2" target="0AXJoQNNjU15Bwa_78E2-4" edge="1">
          <mxGeometry relative="1" as="geometry" />
        </mxCell>
        <mxCell id="0AXJoQNNjU15Bwa_78E2-2" value="reverseNum = reverseNum * 10 + digit" style="rounded=0;whiteSpace=wrap;html=1;" parent="WAv2XqKqGx1UPSfr3l2Y-1" vertex="1">
          <mxGeometry x="180" y="530" width="120" height="60" as="geometry" />
        </mxCell>
        <mxCell id="0AXJoQNNjU15Bwa_78E2-6" style="edgeStyle=orthogonalEdgeStyle;rounded=0;orthogonalLoop=1;jettySize=auto;html=1;entryX=0;entryY=0.5;entryDx=0;entryDy=0;" parent="WAv2XqKqGx1UPSfr3l2Y-1" source="0AXJoQNNjU15Bwa_78E2-4" target="WAv2XqKqGx1UPSfr3l2Y-9" edge="1">
          <mxGeometry relative="1" as="geometry">
            <Array as="points">
              <mxPoint x="160" y="640" />
              <mxPoint x="160" y="370" />
            </Array>
          </mxGeometry>
        </mxCell>
        <mxCell id="0AXJoQNNjU15Bwa_78E2-4" value="kode / 10" style="rounded=0;whiteSpace=wrap;html=1;" parent="WAv2XqKqGx1UPSfr3l2Y-1" vertex="1">
          <mxGeometry x="180" y="610" width="120" height="60" as="geometry" />
        </mxCell>
        <mxCell id="0AXJoQNNjU15Bwa_78E2-10" style="edgeStyle=orthogonalEdgeStyle;rounded=0;orthogonalLoop=1;jettySize=auto;html=1;exitX=0.5;exitY=1;exitDx=0;exitDy=0;" parent="WAv2XqKqGx1UPSfr3l2Y-1" source="0AXJoQNNjU15Bwa_78E2-7" target="0AXJoQNNjU15Bwa_78E2-11" edge="1">
          <mxGeometry relative="1" as="geometry">
            <mxPoint x="239.86956521739137" y="860" as="targetPoint" />
          </mxGeometry>
        </mxCell>
        <mxCell id="0AXJoQNNjU15Bwa_78E2-14" value="True" style="edgeLabel;html=1;align=center;verticalAlign=middle;resizable=0;points=[];" parent="0AXJoQNNjU15Bwa_78E2-10" vertex="1" connectable="0">
          <mxGeometry x="-0.1565" y="-3" relative="1" as="geometry">
            <mxPoint x="3" as="offset" />
          </mxGeometry>
        </mxCell>
        <mxCell id="0AXJoQNNjU15Bwa_78E2-21" style="edgeStyle=orthogonalEdgeStyle;rounded=0;orthogonalLoop=1;jettySize=auto;html=1;exitX=0;exitY=0.5;exitDx=0;exitDy=0;entryX=0.5;entryY=0;entryDx=0;entryDy=0;" parent="WAv2XqKqGx1UPSfr3l2Y-1" source="0AXJoQNNjU15Bwa_78E2-7" target="0AXJoQNNjU15Bwa_78E2-20" edge="1">
          <mxGeometry relative="1" as="geometry" />
        </mxCell>
        <mxCell id="0AXJoQNNjU15Bwa_78E2-7" value="originalNum&amp;nbsp;&lt;div&gt;==&amp;nbsp;&lt;/div&gt;&lt;div&gt;reverseNum&lt;/div&gt;" style="rhombus;whiteSpace=wrap;html=1;" parent="WAv2XqKqGx1UPSfr3l2Y-1" vertex="1">
          <mxGeometry x="185" y="710" width="110" height="110" as="geometry" />
        </mxCell>
        <mxCell id="0AXJoQNNjU15Bwa_78E2-18" style="edgeStyle=orthogonalEdgeStyle;rounded=0;orthogonalLoop=1;jettySize=auto;html=1;exitX=1;exitY=1;exitDx=0;exitDy=0;" parent="WAv2XqKqGx1UPSfr3l2Y-1" source="0AXJoQNNjU15Bwa_78E2-11" edge="1">
          <mxGeometry relative="1" as="geometry">
            <mxPoint x="330" y="921" as="targetPoint" />
          </mxGeometry>
        </mxCell>
        <mxCell id="0AXJoQNNjU15Bwa_78E2-11" value="kode sandi adalah&lt;div&gt;Palindrome&lt;/div&gt;" style="shape=parallelogram;perimeter=parallelogramPerimeter;whiteSpace=wrap;html=1;fixedSize=1;" parent="WAv2XqKqGx1UPSfr3l2Y-1" vertex="1">
          <mxGeometry x="170" y="860" width="140" height="70" as="geometry" />
        </mxCell>
        <mxCell id="0AXJoQNNjU15Bwa_78E2-13" style="edgeStyle=orthogonalEdgeStyle;rounded=0;orthogonalLoop=1;jettySize=auto;html=1;exitDx=0;exitDy=0;entryX=0.5;entryY=0;entryDx=0;entryDy=0;entryPerimeter=0;" parent="WAv2XqKqGx1UPSfr3l2Y-1" source="0AXJoQNNjU15Bwa_78E2-16" edge="1">
          <mxGeometry relative="1" as="geometry">
            <mxPoint x="240" y="972" as="targetPoint" />
          </mxGeometry>
        </mxCell>
        <mxCell id="0AXJoQNNjU15Bwa_78E2-17" value="" style="edgeStyle=orthogonalEdgeStyle;rounded=0;orthogonalLoop=1;jettySize=auto;html=1;exitX=0.5;exitY=1;exitDx=0;exitDy=0;entryDx=0;entryDy=0;entryPerimeter=0;" parent="WAv2XqKqGx1UPSfr3l2Y-1" source="0AXJoQNNjU15Bwa_78E2-11" target="0AXJoQNNjU15Bwa_78E2-16" edge="1">
          <mxGeometry relative="1" as="geometry">
            <mxPoint x="240" y="930" as="sourcePoint" />
            <mxPoint x="240" y="1000" as="targetPoint" />
          </mxGeometry>
        </mxCell>
        <mxCell id="0AXJoQNNjU15Bwa_78E2-16" value="" style="shape=waypoint;sketch=0;size=6;pointerEvents=1;points=[];fillColor=none;resizable=0;rotatable=0;perimeter=centerPerimeter;snapToPoint=1;" parent="WAv2XqKqGx1UPSfr3l2Y-1" vertex="1">
          <mxGeometry x="230" y="940" width="20" height="20" as="geometry" />
        </mxCell>
        <mxCell id="0AXJoQNNjU15Bwa_78E2-19" style="edgeStyle=orthogonalEdgeStyle;rounded=0;orthogonalLoop=1;jettySize=auto;html=1;exitX=1;exitY=1;exitDx=0;exitDy=0;" parent="WAv2XqKqGx1UPSfr3l2Y-1" source="0AXJoQNNjU15Bwa_78E2-20" edge="1">
          <mxGeometry relative="1" as="geometry">
            <mxPoint x="180" y="871" as="targetPoint" />
          </mxGeometry>
        </mxCell>
        <mxCell id="0AXJoQNNjU15Bwa_78E2-22" style="edgeStyle=orthogonalEdgeStyle;rounded=0;orthogonalLoop=1;jettySize=auto;html=1;exitX=0.5;exitY=1;exitDx=0;exitDy=0;" parent="WAv2XqKqGx1UPSfr3l2Y-1" source="0AXJoQNNjU15Bwa_78E2-20" target="0AXJoQNNjU15Bwa_78E2-16" edge="1">
          <mxGeometry relative="1" as="geometry">
            <Array as="points">
              <mxPoint x="105" y="950" />
            </Array>
          </mxGeometry>
        </mxCell>
        <mxCell id="0AXJoQNNjU15Bwa_78E2-20" value="kode sandi bukan&lt;div&gt;Palindrome&lt;/div&gt;" style="shape=parallelogram;perimeter=parallelogramPerimeter;whiteSpace=wrap;html=1;fixedSize=1;" parent="WAv2XqKqGx1UPSfr3l2Y-1" vertex="1">
          <mxGeometry x="40" y="810" width="130" height="70" as="geometry" />
        </mxCell>
        <mxCell id="__X1R86K5aZj5KAcFRv2-0" value="&lt;div&gt;palindrome&lt;/div&gt;" style="verticalLabelPosition=bottom;verticalAlign=top;html=1;shape=offPageConnector;rounded=0;size=0.5;" vertex="1" parent="WAv2XqKqGx1UPSfr3l2Y-1">
          <mxGeometry x="210" y="40" width="60" height="60" as="geometry" />
        </mxCell>
        <mxCell id="__X1R86K5aZj5KAcFRv2-1" value="&lt;div&gt;palindrome 1&lt;/div&gt;" style="verticalLabelPosition=bottom;verticalAlign=top;html=1;shape=offPageConnector;rounded=0;size=0.5;" vertex="1" parent="WAv2XqKqGx1UPSfr3l2Y-1">
          <mxGeometry x="210" y="970" width="60" height="60" as="geometry" />
        </mxCell>
      </root>
    </mxGraphModel>
  </diagram>
</mxfile>
